/* XPM */
static const char *const aspect235_xpm[] = {
"19 16 5 1 0 0",
"  c #000000",
"! c #FFFFFF",
"# c #C0C0C0",
"$ c #808080",
"% c None",
"%%%%%%%%%%%%%%%%%%%",
"%%%%%%%%%%%%%%%%%%%",
"%%%%%%%%%%%%%%%%%%%",
"%                 %",
"  !!!!!!!!!!!!!!!  ",
" !               ! ",
" ! #!#   !!# !!! ! ",
" ! ! ! !   ! !   ! ",
" !  $!    !! !!# ! ",
" !  !  !   !   ! ! ",
" ! !!!   !!# !!# ! ",
" !               ! ",
"  !!!!!!!!!!!!!!!  ",
"%                 %",
"%%%%%%%%%%%%%%%%%%%",
"%%%%%%%%%%%%%%%%%%%"
};
