/* XPM */
static const char *const aspect43_xpm[] = {
"19 16 4 1 0 0",
"  c #000000",
"! c #FFFFFF",
"# c #C0C0C0",
"$ c None",
"$$$$$$$$$$$$$$$$$$$",
"$$$$$$$$$$$$$$$$$$$",
"$$$$$$$$$$$$$$$$$$$",
"$                 $",
"  !!!!!!!!!!!!!!!  ",
" !               ! ",
" !    !     !!#  ! ",
" !   !!  !    !  ! ",
" !  ! !      !!  ! ",
" !  !!!  !    !  ! ",
" !    !     !!#  ! ",
" !               ! ",
"  !!!!!!!!!!!!!!!  ",
"$                 $",
"$$$$$$$$$$$$$$$$$$$",
"$$$$$$$$$$$$$$$$$$$"
};
