/* XPM */
static const char *const aspect11_xpm[] = {
"19 16 3 1 0 0",
"  c #000000",
"! c #FFFFFF",
"# c None",
"###################",
"###################",
"###################",
"#                 #",
"  !!!!!!!!!!!!!!!  ",
" !               ! ",
" !   !       !   ! ",
" !  !!   !  !!   ! ",
" !   !       !   ! ",
" !   !   !   !   ! ",
" !  !!!     !!!  ! ",
" !               ! ",
"  !!!!!!!!!!!!!!!  ",
"#                 #",
"###################",
"###################"
};
