/* XPM */
static const char * const dvd_xpm[] = {
"16 16 100 2",
"   c #000000",
"!  c #7277FF",
"#  c #7C7EFF",
"$  c #8B8DFF",
"%  c #9293FF",
"&  c #9393FF",
"'  c #9595FF",
"(  c #9596FF",
")  c #9797FF",
"*  c #989BFF",
"+  c #999CFF",
",  c #9B9CFF",
"-  c #9B9DFF",
".  c #9C9DFF",
"/  c #9E9FFF",
"0  c #A0A2FF",
"1  c #A2A4FF",
"2  c #A3A6FF",
"3  c #A6A8FF",
"4  c #A8AAFF",
"5  c #B0B0FF",
"6  c #AFB1FF",
"7  c #B2B4FF",
"8  c #B4B4FF",
"9  c #B6B6FF",
":  c #B7B7FF",
";  c #B5B8FF",
"<  c #B8B8FF",
"=  c #B8B9FF",
">  c #B9B9FF",
"?  c #BABAFF",
"@  c #BBBBFF",
"A  c #BCBBFF",
"B  c #BCBCFF",
"C  c #BFBFFF",
"D  c #C0C0FF",
"E  c #C1C1FF",
"F  c #C2C2FF",
"G  c #C4C4FF",
"H  c #C4C5FF",
"I  c #C5C5FF",
"J  c #C6C6FF",
"K  c #C6C7FF",
"L  c #C7C7FF",
"M  c #C8C8FF",
"N  c #C9CAFF",
"O  c #CACAFF",
"P  c #CBCBFF",
"Q  c #CACCFF",
"R  c #CCCCFF",
"S  c #CCCDFF",
"T  c #CDCDFF",
"U  c #CECEFF",
"V  c #CFCFFF",
"W  c #D1D1FF",
"X  c #D2D2FF",
"Y  c #D3D3FF",
"Z  c #D3D4FF",
"[  c #D4D4FF",
"[] c #D6D6FF",
"]  c #D7D7FF",
"^  c #D8D8FF",
"_  c #D9D9FF",
"`  c #DBDAFF",
"a  c #DBDBFF",
"b  c #DCDCFF",
"c  c #DDDDFF",
"d  c #DFDEFF",
"e  c #E0E0FF",
"f  c #E1E1FF",
"g  c #E2E2FF",
"h  c #E3E3FF",
"i  c #E4E4FF",
"j  c #E5E5FF",
"k  c #E6E6FF",
"l  c #E7E7FF",
"m  c #E8E8FF",
"n  c #E9E9FF",
"o  c #EAE9FF",
"p  c #EAEAFF",
"q  c #EBEBFF",
"r  c #ECECFF",
"s  c #EDEDFF",
"t  c #EFEFFF",
"u  c #F0F0FF",
"v  c #F2F2FF",
"w  c #F3F3FF",
"x  c #F4F4FF",
"y  c #F5F5FF",
"z  c #F6F6FF",
"{  c #F7F7FF",
"|  c #F8F8FF",
"}  c #F9F9FF",
"~  c #FAFAFF",
" ! c #FBFBFF",
"!! c #FCFCFF",
"#! c #FDFDFF",
"$! c #FEFEFF",
"%! c #FFFFFF",
"&! c None",
"&!&!&!&!&!Q Z X W W &!&!&!&!&!&!",
"&!&!&!; s ~  ! ! !!!%!_ 6 &!&!&!",
"&!&!J #!{ } } } z | ~  !#!= &!&!",
"&!7 o b w { | { x { | #!#! !4 &!",
"&!P R ] f z | { w y !!!!y t S &!",
"&!X T []e l | k j #! !w q h r . ",
"H E U ] g m X ^ i a v l c [ f 1 ",
"N G V a i b ` &!! d c []M B C / ",
"K []^ f m h g + = I Y L @ ? G ( ",
"H i g m r  !b ^ X O J B > ? R & ",
"0 j m q %!$!y _ { X I F > < A 2 ",
"&!, u %!w w _ w w w I I E D # &!",
"&!&!]  !w _ w w w w p I L ) &!&!",
"&!&!* J k _ w w u i n x ' &!&!&!",
"&!&!&!&!3 : O g m c 8 $ &!&!&!&!",
"&!&!&!&!&!&!- 9 5 % &!&!&!&!&!&!"
};
