/* XPM */
static const char *const about_xpm[] = {
"16 16 98 2 0 0",
"   c #CAA912",
"!  c #CBAA15",
"#  c #C4A202",
"$  c #EDDF98",
"%  c #EEE3A5",
"&  c #C8A60B",
"'  c #F8F4DF",
"(  c #F9F4E0",
")  c #D7BD3F",
"*  c #F9F3CB",
"+  c #FAF3CB",
",  c #D7BC3E",
"-  c #C5A101",
".  c #C4A000",
"/  c #E7D781",
"0  c #FBF2A9",
"1  c #FBF1A5",
"2  c #E8D780",
"3  c #CBA918",
"4  c #EFE5B4",
"5  c #F0E6B8",
"6  c #EFE4AC",
"7  c #F9F4D3",
"8  c #FBEF86",
"9  c #FBED7C",
":  c #F9F3CC",
";  c #EFE4AE",
"<  c #EFE3AA",
"=  c #F0E6B7",
">  c #EFE4B4",
"?  c #CBAA19",
"@  c #CAA811",
"A  c #E8D788",
"B  c #FEFDEE",
"C  c #FCF4AC",
"D  c #FCEF8A",
"E  c #FCEE7F",
"F  c #FBEB6A",
"G  c #FAE95F",
"H  c #F9E966",
"I  c #F9E96F",
"J  c #FAF09E",
"K  c #FEFCEB",
"L  c #E7D686",
"M  c #CAA80F",
"N  c #C7A406",
"O  c #D8BF46",
"P  c #F5EDBA",
"Q  c #FBF1A2",
"R  c #FAEA66",
"S  c #FAE95C",
"T  c #F9E754",
"U  c #F8E654",
"V  c #FAEE94",
"W  c #F5ECB5",
"X  c #D8BF44",
"Y  c #C7A305",
"Z  c #D6BC3D",
"[  c #F4EAAD",
"]  c #FAEB70",
"^  c #F9E64F",
"_  c #F8E549",
"`  c #F8E864",
"a  c #F4E9A9",
"b  c #D6BB3B",
"c  c #F3E79E",
"d  c #F9E96A",
"e  c #F9EA72",
"f  c #F9EA6E",
"g  c #F7E761",
"h  c #F2E799",
"i  c #D8BF43",
"j  c #E0CC69",
"k  c #F9F0A7",
"l  c #F4E89E",
"m  c #F3E79D",
"n  c #FAF09C",
"o  c #F8EEA1",
"p  c #E0CB67",
"q  c #CDAE1D",
"r  c #E8D990",
"s  c #FCF8D6",
"t  c #EADB8A",
"u  c #D5BA37",
"v  c #EADB88",
"w  c #FCF8D3",
"x  c #CDAE1C",
"y  c #D2B62B",
"z  c #EDE09A",
"{  c #E4D380",
"|  c #CEB021",
"}  c #CEB020",
"~  c #E4D37E",
" ! c #ECDF97",
"!! c #D1B528",
"#! c #CAAA14",
"$! c #C9A812",
"%! c None",
"%!%!%!%!%!%!%!%!%!%!%!%!%!%!%!%!",
"%!%!%!%!%!%!%!  ! %!%!%!%!%!%!%!",
"%!%!%!%!%!%!# $ % # %!%!%!%!%!%!",
"%!%!%!%!%!%!& ' ( & %!%!%!%!%!%!",
"%!%!%!%!%!%!) * + , %!%!%!%!%!%!",
"%!%!- . . . / 0 1 2 . . . . %!%!",
"%!3 4 5 6 4 7 8 9 : ; < = > ? %!",
"%!@ A B C D E F G H I J K L M %!",
"%!%!N O P Q R S T U V W X Y %!%!",
"%!%!%!%!Z [ ] ^ _ ` a b %!%!%!%!",
"%!%!%!%!O c d e f g h i %!%!%!%!",
"%!%!%!%!j k Q l m n o p %!%!%!%!",
"%!%!%!q r s t u u v w r x %!%!%!",
"%!%!%!y z { | %!%!} ~  !!!%!%!%!",
"%!%!%!%!#!$!%!%!%!%!$!#!%!%!%!%!",
"%!%!%!%!%!%!%!%!%!%!%!%!%!%!%!%!"
};
