/* XPM */
static const char * const playdvd_xpm[] = {
"16 16 109 2",
"   c #000000",
"!  c #0A0A0A",
"#  c #151414",
"$  c #292828",
"%  c #313131",
"&  c #343333",
"'  c #363635",
"(  c #373737",
")  c #383737",
"*  c #3E3D3D",
"+  c #41403F",
",  c #404040",
"-  c #5A5A59",
".  c #5C5C5C",
"/  c #696867",
"0  c #747472",
"1  c #91908E",
"2  c #939290",
"3  c #A1A09E",
"4  c #A7A6A3",
"5  c #B0AFAC",
"6  c #B8B7B4",
"7  c #BEBCB9",
"8  c #C8C7C4",
"9  c #7277FF",
":  c #9293FF",
";  c #9393FF",
"<  c #9596FF",
"=  c #989BFF",
">  c #999CFF",
"?  c #9B9CFF",
"@  c #9B9DFF",
"A  c #9C9DFF",
"B  c #9E9FFF",
"C  c #A0A2FF",
"D  c #A2A4FF",
"E  c #A6A8FF",
"F  c #A8AAFF",
"G  c #B0B0FF",
"H  c #AFB1FF",
"I  c #B2B4FF",
"J  c #B4B4FF",
"K  c #B6B6FF",
"L  c #B7B7FF",
"M  c #B5B8FF",
"N  c #B8B9FF",
"O  c #BCBCFF",
"P  c #BFBFFF",
"Q  c #C1C1FF",
"R  c #C4C4FF",
"S  c #C4C5FF",
"T  c #C5C5FF",
"U  c #C6C6FF",
"V  c #C6C7FF",
"W  c #C9CAFF",
"X  c #CACAFF",
"Y  c #CBCBFF",
"Z  c #CACCFF",
"[  c #CCCCFF",
"[] c #CCCDFF",
"]  c #CDCDFF",
"^  c #CECEFF",
"_  c #CFCFFF",
"`  c #D1D1FF",
"a  c #D2D2FF",
"b  c #D3D3FF",
"c  c #D3D4FF",
"d  c #D4D4FF",
"e  c #D6D6FF",
"f  c #D7D7FF",
"g  c #D8D8FF",
"h  c #D9D9FF",
"i  c #DBDAFF",
"j  c #DBDBFF",
"k  c #DCDCFF",
"l  c #DDDDFF",
"m  c #DFDEFF",
"n  c #E0E0FF",
"o  c #E1E1FF",
"p  c #E2E2FF",
"q  c #E3E3FF",
"r  c #E4E4FF",
"s  c #E5E5FF",
"t  c #E6E6FF",
"u  c #E7E7FF",
"v  c #E8E8FF",
"w  c #E9E9FF",
"x  c #EAE9FF",
"y  c #EAEAFF",
"z  c #EBEBFF",
"{  c #ECECFF",
"|  c #EDEDFF",
"}  c #EFEFFF",
"~  c #F0F0FF",
" ! c #F2F2FF",
"!! c #F3F3FF",
"#! c #F4F4FF",
"$! c #F5F5FF",
"%! c #F6F6FF",
"&! c #F7F7FF",
"'! c #F8F8FF",
"(! c #F9F9FF",
")! c #FAFAFF",
"*! c #FBFBFF",
"+! c #FCFCFF",
",! c #FDFDFF",
"-! c #FEFEFF",
".! c #FFFFFF",
"/! c None",
"/!/!/!/!/!Z c a ` ` /!/!/!/!/!/!",
"/!/!/!M | )!*!*!*!+!.!h H /!/!/!",
"/!/!U ,!&!(!(!(!%!'!)!*!,!N /!/!",
"/!I x k !!&!'!&!#!&!'!,!,!*!F /!",
"/!Y [ f o %!'!&!!!$!+!+!$!} []/!",
"/!a ] e n u '!t s ,!*!!!z q { A ",
"S Q ^ f p v a g r j  !, l d o D ",
"W R _ j r k i /!9 m l $ ( O P B ",
"V e g o v q p > N T b % 0 . R < ",
"S r p v { *!k g a X U & 3 2 . ; ",
"C s v z .!-!$!h &!a T ' 4 6 1 . ",
"/!? ~ .!!!!!h !!!!!!T ) 5 8 - /!",
"/!/!f *!!!h !!!!!!!!y * 7 # /!/!",
"/!/!= U t h !!!!~ r w + / -!/!/!",
"/!/!/!/!E L X p v l J ! .!/!/!/!",
"/!/!/!/!/!/!@ K G : /!P /!/!/!/!"
};
